<svg width="152" height="31" viewBox="0 0 152 31" fill="none" xmlns="http://www.w3.org/2000/svg">
<g clip-path="url(#clip0_46440_91758)">
<path d="M0 1.48643C0 0.891992 0.505273 0.386719 1.09971 0.386719H1.30777C1.78332 0.386719 2.11026 0.654216 2.40748 1.0406L14.0882 18.2496L25.8284 1.0406C26.0959 0.654216 26.4823 0.386719 26.9281 0.386719H27.1361C27.7306 0.386719 28.2359 0.891992 28.2359 1.48643V29.544C28.2359 30.1384 27.7306 30.6437 27.1361 30.6437C26.5417 30.6437 26.0364 30.1384 26.0364 29.544V4.45863L15.0393 20.4788C14.7718 20.8651 14.4746 21.0435 14.0882 21.0435C13.7018 21.0435 13.4046 20.8651 13.1371 20.4788L2.13998 4.45863V29.6034C2.13998 30.1978 1.66443 30.6734 1.06999 30.6734C0.475551 30.6734 0 30.1978 0 29.6034V1.48643Z" fill="#2CABE1"/>
<path d="M46.0685 18.6364L34.3877 2.14074C34.2689 1.93269 34.1797 1.66519 34.1797 1.45713C34.1797 0.862695 34.7444 0.357422 35.3388 0.357422C35.8144 0.357422 36.1116 0.62492 36.3791 1.0113L47.2573 16.6451L58.1653 1.0113C58.4328 0.654641 58.6706 0.357422 59.1461 0.357422C59.7108 0.357422 60.2458 0.862695 60.2458 1.42741C60.2458 1.72463 60.0675 2.02185 59.8892 2.28935L48.2976 18.6067V29.5741C48.2976 30.1685 47.7923 30.6738 47.1979 30.6738C46.6035 30.6738 46.0982 30.1685 46.0982 29.5741V18.6364H46.0685Z" fill="#2CABE1"/>
<path d="M79.2089 28.4441C84.3508 28.4441 87.5905 26.096 87.5905 22.3213V22.2322C87.5905 18.5467 84.3806 16.4067 78.4659 16.4067H68.3307V28.4441H79.2089V28.4441ZM78.2281 14.3559C82.7161 14.3559 85.9261 12.1862 85.9261 8.20342V8.11425C85.9261 4.81512 83.2214 2.58597 78.4362 2.58597H68.3307V14.3559H78.2281ZM66.1016 1.63487C66.1016 1.04043 66.6068 0.535156 67.2013 0.535156H78.4659C81.8542 0.535156 84.5886 1.51598 86.2531 3.18041C87.5014 4.42873 88.185 6.004 88.185 7.87648V7.96564C88.185 12.0376 85.5397 14.0884 83.1025 15.0692C86.6989 16.0203 89.8791 18.0711 89.8791 22.2322V22.3213C89.8791 27.3444 85.5992 30.4949 79.1198 30.4949H67.2013C66.6068 30.4949 66.1016 29.9896 66.1016 29.3952V1.63487Z" fill="#2CABE1"/>
<path d="M122.693 15.5743V15.4851C122.693 8.08437 117.284 1.99137 109.883 1.99137C102.482 1.99137 97.1621 7.9952 97.1621 15.396V15.4851C97.1621 22.8859 102.571 28.9789 109.972 28.9789C117.373 28.9789 122.693 23.0048 122.693 15.5743ZM94.8438 15.5743V15.4851C94.8438 7.3116 100.877 0 109.972 0C119.067 0 125.012 7.22243 125.012 15.4257V15.5149C125.012 23.6884 118.978 31.0297 109.883 31.0297C100.788 31 94.8438 23.7776 94.8438 15.5743Z" fill="#2CABE1"/>
<path d="M130.242 26.7207C130.034 26.5424 129.826 26.2452 129.826 25.8588C129.826 25.2643 130.331 24.7591 130.926 24.7591C131.223 24.7591 131.491 24.878 131.639 25.0266C134.641 27.7313 137.643 28.9201 141.745 28.9201C146.233 28.9201 149.324 26.3938 149.324 22.9757V22.8866C149.324 19.7063 147.659 17.8636 140.853 16.4964C133.66 15.04 130.748 12.6028 130.748 8.05533V7.96616C130.748 3.50787 134.819 0.0898438 140.377 0.0898438C144.39 0.0898438 147.184 1.13011 149.918 3.18093C150.126 3.35926 150.394 3.65648 150.394 4.07259C150.394 4.66702 149.888 5.1723 149.294 5.1723C149.027 5.1723 148.789 5.08313 148.551 4.9048C145.935 2.88371 143.32 2.08121 140.288 2.08121C135.889 2.08121 132.977 4.60758 132.977 7.72839V7.81755C132.977 10.9978 134.611 12.9 141.715 14.3564C148.64 15.783 151.553 18.25 151.553 22.6191V22.7083C151.553 27.5529 147.392 30.8818 141.626 30.8818C137.138 30.9115 133.631 29.5146 130.242 26.7207Z" fill="#2CABE1"/>
<path d="M113.509 15.515C113.509 17.4469 111.933 19.0222 110.001 19.0222C108.069 19.0222 106.494 17.4469 106.494 15.515C106.494 13.5831 108.069 12.0078 110.001 12.0078C111.933 12.0078 113.509 13.5831 113.509 15.515Z" fill="#2CABE1"/>
<path d="M0 1.48643C0 0.891992 0.505273 0.386719 1.09971 0.386719H1.30777C1.78332 0.386719 2.11026 0.654216 2.40748 1.0406L14.0882 18.2496L25.8284 1.0406C26.0959 0.654216 26.4823 0.386719 26.9281 0.386719H27.1361C27.7306 0.386719 28.2359 0.891992 28.2359 1.48643V29.544C28.2359 30.1384 27.7306 30.6437 27.1361 30.6437C26.5417 30.6437 26.0364 30.1384 26.0364 29.544V4.45863L15.0393 20.4788C14.7718 20.8651 14.4746 21.0435 14.0882 21.0435C13.7018 21.0435 13.4046 20.8651 13.1371 20.4788L2.13998 4.45863V29.6034C2.13998 30.1978 1.66443 30.6734 1.06999 30.6734C0.475551 30.6734 0 30.1978 0 29.6034V1.48643Z" fill="white"/>
<path d="M46.0685 18.6364L34.3877 2.14074C34.2689 1.93269 34.1797 1.66519 34.1797 1.45713C34.1797 0.862695 34.7444 0.357422 35.3388 0.357422C35.8144 0.357422 36.1116 0.62492 36.3791 1.0113L47.2573 16.6451L58.1653 1.0113C58.4328 0.654641 58.6706 0.357422 59.1461 0.357422C59.7108 0.357422 60.2458 0.862695 60.2458 1.42741C60.2458 1.72463 60.0675 2.02185 59.8892 2.28935L48.2976 18.6067V29.5741C48.2976 30.1685 47.7923 30.6738 47.1979 30.6738C46.6035 30.6738 46.0982 30.1685 46.0982 29.5741V18.6364H46.0685Z" fill="white"/>
<path d="M79.2089 28.4441C84.3508 28.4441 87.5905 26.096 87.5905 22.3213V22.2322C87.5905 18.5467 84.3806 16.4067 78.4659 16.4067H68.3307V28.4441H79.2089V28.4441ZM78.2281 14.3559C82.7161 14.3559 85.9261 12.1862 85.9261 8.20342V8.11425C85.9261 4.81512 83.2214 2.58597 78.4362 2.58597H68.3307V14.3559H78.2281ZM66.1016 1.63487C66.1016 1.04043 66.6068 0.535156 67.2013 0.535156H78.4659C81.8542 0.535156 84.5886 1.51598 86.2531 3.18041C87.5014 4.42873 88.185 6.004 88.185 7.87648V7.96564C88.185 12.0376 85.5397 14.0884 83.1025 15.0692C86.6989 16.0203 89.8791 18.0711 89.8791 22.2322V22.3213C89.8791 27.3444 85.5992 30.4949 79.1198 30.4949H67.2013C66.6068 30.4949 66.1016 29.9896 66.1016 29.3952V1.63487Z" fill="white"/>
<path d="M122.693 15.5743V15.4851C122.693 8.08437 117.284 1.99137 109.883 1.99137C102.482 1.99137 97.1621 7.9952 97.1621 15.396V15.4851C97.1621 22.8859 102.571 28.9789 109.972 28.9789C117.373 28.9789 122.693 23.0048 122.693 15.5743ZM94.8438 15.5743V15.4851C94.8438 7.3116 100.877 0 109.972 0C119.037 0 125.012 7.22243 125.012 15.4257V15.5149C125.012 23.6884 118.978 31.0297 109.883 31.0297C100.788 31 94.8438 23.7776 94.8438 15.5743Z" fill="white"/>
<path d="M130.242 26.7207C130.034 26.5424 129.826 26.2452 129.826 25.8588C129.826 25.2643 130.331 24.7591 130.926 24.7591C131.223 24.7591 131.491 24.878 131.639 25.0266C134.641 27.7313 137.643 28.9201 141.745 28.9201C146.233 28.9201 149.324 26.3938 149.324 22.9757V22.8866C149.324 19.7063 147.659 17.8636 140.853 16.4964C133.66 15.04 130.748 12.6028 130.748 8.05533V7.96616C130.748 3.50787 134.819 0.0898438 140.377 0.0898438C144.39 0.0898438 147.184 1.13011 149.918 3.18093C150.126 3.35926 150.394 3.65648 150.394 4.07259C150.394 4.66702 149.888 5.1723 149.294 5.1723C149.027 5.1723 148.789 5.08313 148.551 4.9048C145.935 2.88371 143.32 2.08121 140.288 2.08121C135.889 2.08121 132.977 4.60758 132.977 7.72839V7.81755C132.977 10.9978 134.611 12.9 141.715 14.3564C148.64 15.783 151.553 18.25 151.553 22.6191V22.7083C151.553 27.5529 147.392 30.8818 141.626 30.8818C137.138 30.9115 133.631 29.5146 130.242 26.7207Z" fill="white"/>
<path d="M113.509 15.515C113.509 17.4469 111.933 19.0222 110.001 19.0222C108.069 19.0222 106.494 17.4469 106.494 15.515C106.494 13.5831 108.069 12.0078 110.001 12.0078C111.933 12.0078 113.509 13.5831 113.509 15.515Z" fill="#44B2E8"/>
</g>
<defs>
<clipPath id="clip0_46440_91758">
<rect width="151.582" height="31" fill="white"/>
</clipPath>
</defs>
</svg>
