<svg width="24" height="24" viewBox="0 0 24 24" fill="none" xmlns="http://www.w3.org/2000/svg">
<path d="M11.75 2C6.37695 2 2 6.37695 2 11.75C2 17.123 6.37695 21.5 11.75 21.5C17.123 21.5 21.5 17.123 21.5 11.75C21.5 6.37695 17.123 2 11.75 2ZM11.75 3.5C16.3145 3.5 20 7.18555 20 11.75C20 16.3145 16.3145 20 11.75 20C7.18555 20 3.5 16.3145 3.5 11.75C3.5 7.18555 7.18555 3.5 11.75 3.5ZM11.75 5C11.334 5 11 5.33398 11 5.75C11 6.16602 11.334 6.5 11.75 6.5C12.166 6.5 12.5 6.16602 12.5 5.75C12.5 5.33398 12.166 5 11.75 5ZM16.2324 6.49414C16.0391 6.5 15.8574 6.58203 15.7168 6.72266L11.2227 11.2227C11.0234 11.4102 10.9473 11.6855 11.0117 11.9492C11.082 12.2129 11.2871 12.418 11.5508 12.4883C11.8145 12.5527 12.0898 12.4766 12.2773 12.2773L16.7832 7.77734C17 7.56641 17.0645 7.23828 16.9473 6.95117C16.8242 6.66992 16.543 6.48828 16.2324 6.49414ZM7.25 6.5C6.83398 6.5 6.5 6.83398 6.5 7.25C6.5 7.66602 6.83398 8 7.25 8C7.66602 8 8 7.66602 8 7.25C8 6.83398 7.66602 6.5 7.25 6.5ZM5.75 11C5.33398 11 5 11.334 5 11.75C5 12.166 5.33398 12.5 5.75 12.5C6.16602 12.5 6.5 12.166 6.5 11.75C6.5 11.334 6.16602 11 5.75 11ZM17.75 11C17.334 11 17 11.334 17 11.75C17 12.166 17.334 12.5 17.75 12.5C18.166 12.5 18.5 12.166 18.5 11.75C18.5 11.334 18.166 11 17.75 11ZM7.25 15.5C6.83398 15.5 6.5 15.834 6.5 16.25C6.5 16.666 6.83398 17 7.25 17C7.66602 17 8 16.666 8 16.25C8 15.834 7.66602 15.5 7.25 15.5ZM16.25 15.5C15.834 15.5 15.5 15.834 15.5 16.25C15.5 16.666 15.834 17 16.25 17C16.666 17 17 16.666 17 16.25C17 15.834 16.666 15.5 16.25 15.5Z" fill="white"/>
</svg>
